<svg xmlns="http://www.w3.org/2000/svg" width="421.375" height="63.188" viewBox="0 0 421.375 63.188">
  <defs>
    <style>
      .cls-1 {
        fill: #dd2c00;
        fill-rule: evenodd;
      }
    </style>
  </defs>
  <path id="BORA_SURFAR" data-name="BORA SURFAR" class="cls-1" d="M45.335,22.429q6.775-3.076,6.775-8.13a8.84,8.84,0,0,0-3.479-7.544,13.448,13.448,0,0,0-8.2-2.307,40.415,40.415,0,0,0-4.486.366,40.289,40.289,0,0,1-4.486.366H19.407a206.7,206.7,0,0,1-13.55,44.6h12.6a18.521,18.521,0,0,0,11.792,3.882q9.631,0,15.6-4.614,6.592-5.127,6.592-14.5,0-9.851-7.1-12.122h0Zm-6.28-3.754a4.021,4.021,0,0,1-3.131,1.556H29.295L31.345,13.6a6.423,6.423,0,0,1,4.321-1.648,6.07,6.07,0,0,1,3.113.769,2.856,2.856,0,0,1,1.611,2.6A5.054,5.054,0,0,1,39.054,18.676ZM34.092,37.517a5.958,5.958,0,0,1-5.017,2.344A10.386,10.386,0,0,1,23.8,38.177l2.82-9.229a9.737,9.737,0,0,1,3.625-.842q5.456,0,5.457,3.955a8.878,8.878,0,0,1-1.611,5.457h0ZM82.469,3.2q-10.913,0-19.739,10.8Q54.38,24.261,54.38,35.43q0,8.02,4.1,12.927,4.395,5.31,12.231,5.31,12.011,0,20.142-10.62a35.383,35.383,0,0,0,7.507-22.119Q98.362,3.2,82.469,3.2h0Zm1.245,31.2q-4.431,6.042-10,6.043a6.534,6.534,0,0,1-5.31-2.234,8.388,8.388,0,0,1-1.794-5.6q0-8.569,7.178-14.8,3.479-3.039,6.738-3.04,7.287,0,7.288,8.24a19.133,19.133,0,0,1-4.1,11.389h0ZM144.651,56.67q-3.882,0-8.642-3.516-4.212-3.112-9.778-15.6a16.906,16.906,0,0,0,10.089-6.3,17.421,17.421,0,0,0,4.193-11.206,21.026,21.026,0,0,0-1.465-7.507q-2.82-7.361-14.172-7.361H107.847a205.387,205.387,0,0,1-13.586,44.6h14.429L112.5,37.3q7.4,19.373,11.9,23.877a13.678,13.678,0,0,0,10.107,3.919q6.225,0,15.381-9.155a12.959,12.959,0,0,1-5.237.732h0ZM125.462,24.92a6.469,6.469,0,0,1-5.42,2.637,13.852,13.852,0,0,1-4.322-.806l3.663-11.9a21.131,21.131,0,0,1,2.38-.147q5.529,0,5.53,4.321a9.387,9.387,0,0,1-1.831,5.9h0Zm56.616,32.959q-5.493,0-9.448-8.2A41.774,41.774,0,0,1,169.187,39.2a86.657,86.657,0,0,1-1.062-11.06q-0.11-2.124-.11-3.552A57.992,57.992,0,0,1,171.97,3.2H155.308q-9.486,21.753-23.291,46.582h14.465q1.319-4.358,2.893-8.826h8.167q0.732,10.034,3.772,16.37,4.32,9.009,12.78,9.009,9.815,0,15.162-10.693-1.612,2.233-7.178,2.234h0ZM157.322,31.951h-4.358q2.16-5.017,4.761-10.034-0.366,5.347-.4,10.034h0ZM214.3,3.167q-16.334,0-16.333,11.646a12.544,12.544,0,0,0,3.333,8.606l6.189,5.566a8.9,8.9,0,0,1,3.369,6.665q0,5.6-6.262,5.6-6.372,0-6.372-5.054,0-3.7,3.845-5.31a12.9,12.9,0,0,0-7.434-2.82,9.724,9.724,0,0,0-5.164,1.648,10.728,10.728,0,0,0-5.236,9.741,11.669,11.669,0,0,0,1.9,6.317,14.119,14.119,0,0,0,4.834,4.743A25.3,25.3,0,0,0,203.9,53.667a21.906,21.906,0,0,0,13.074-4.358q6.591-4.76,6.592-11.572a15.243,15.243,0,0,0-3.406-10.071l-6.372-5.64q-3.442-3.039-3.443-6.445,0-5.017,4.541-5.017a3.9,3.9,0,0,1,2.344.806,2.415,2.415,0,0,1,1.1,2.014q0,1.575-2.088,3.772a11.232,11.232,0,0,0,5.53,1.831,5.649,5.649,0,0,0,4.541-2.234,7.377,7.377,0,0,0,1.721-4.834q0-8.752-13.733-8.752h0Zm48.41,2.014q-4.357,17.029-7.651,26.4-3.112,8.753-9.448,8.752-5.346,0-5.346-6.042a12.221,12.221,0,0,1,.439-3.149l6.848-25.964H234.007q-6.887,25.635-6.885,31.128,0,8.167,4.065,12.6,4.248,4.614,12.341,4.614,9.228,0,14.356-4.761,4.833-4.5,9.887-17.578h-0.035l7.872-26H262.714ZM318.565,56.67q-3.882,0-8.643-3.516-4.212-3.112-9.778-15.6a16.9,16.9,0,0,0,10.089-6.3,17.416,17.416,0,0,0,4.193-11.206,21.024,21.024,0,0,0-1.464-7.507q-2.821-7.361-14.173-7.361H281.76a205.414,205.414,0,0,1-13.586,44.6H282.6L286.411,37.3q7.4,19.373,11.9,23.877a13.679,13.679,0,0,0,10.108,3.919q6.225,0,15.38-9.155a12.95,12.95,0,0,1-5.236.732h0Zm-19.19-31.75a6.468,6.468,0,0,1-5.42,2.637,13.846,13.846,0,0,1-4.321-.806l3.662-11.9a21.131,21.131,0,0,1,2.38-.147q5.531,0,5.53,4.321a9.381,9.381,0,0,1-1.831,5.9h0ZM322.447,5.181q-7.984,30.1-13.587,44.6H322.3q1.611-9.082,3.992-17.725,5.6,0,11.938.33l3.076-10.107q-6.261.33-11.718,0.33h-0.476q1.281-3.79,2.746-7.544h1.428q7.362,0,17.395.293l3.077-10.181H322.447Zm62.695,52.7q-5.493,0-9.448-8.2A41.774,41.774,0,0,1,372.251,39.2a86.657,86.657,0,0,1-1.062-11.06q-0.11-2.124-.11-3.552A57.992,57.992,0,0,1,375.034,3.2H358.372q-9.486,21.753-23.291,46.582h14.465q1.319-4.358,2.893-8.826h8.167q0.732,10.034,3.772,16.37,4.32,9.009,12.78,9.009,9.815,0,15.162-10.693-1.613,2.233-7.178,2.234h0ZM360.386,31.951h-4.358q2.16-5.017,4.761-10.034-0.368,5.347-.4,10.034h0Zm61.6,24.719q-3.882,0-8.643-3.516-4.212-3.112-9.778-15.6a16.9,16.9,0,0,0,10.089-6.3,17.416,17.416,0,0,0,4.193-11.206,21.024,21.024,0,0,0-1.464-7.507q-2.821-7.361-14.173-7.361H385.178a205.414,205.414,0,0,1-13.586,44.6h14.429L389.829,37.3q7.4,19.373,11.9,23.877a13.679,13.679,0,0,0,10.108,3.919q6.225,0,15.38-9.155a12.95,12.95,0,0,1-5.236.732h0Zm-19.19-31.75a6.468,6.468,0,0,1-5.42,2.637,13.846,13.846,0,0,1-4.321-.806l3.662-11.9a21.131,21.131,0,0,1,2.38-.147q5.531,0,5.53,4.321a9.381,9.381,0,0,1-1.831,5.9h0Z" transform="translate(-5.844 -3.156)"/>
</svg>
